<svg version="1.1" xmlns="http://www.w3.org/2000/svg" viewBox="0 0 455.54766845703125 327.385009765625" width="455.54766845703125" height="327.385009765625">
  <!-- svg-source:excalidraw -->
  
  <defs>
    <style class="style-fonts">
      @font-face {
        font-family: "Virgil";
        src: url("https://excalidraw.com/Virgil.woff2");
      }
      @font-face {
        font-family: "Cascadia";
        src: url("https://excalidraw.com/Cascadia.woff2");
      }
    </style>
  </defs>
  <rect x="0" y="0" width="455.54766845703125" height="327.385009765625" fill="#ffffff"></rect><g stroke-linecap="round" transform="translate(10 130.77639770507812) rotate(0 36.5 38.5)"><path d="M41.63 0.28 C48.52 0.77, 56.39 5.92, 61.66 10.98 C66.92 16.03, 71.83 23.14, 73.22 30.59 C74.61 38.04, 73.11 48.63, 70.02 55.7 C66.92 62.77, 61.1 69.6, 54.65 73.01 C48.21 76.42, 38.48 77.23, 31.34 76.15 C24.19 75.08, 16.81 71.68, 11.77 66.54 C6.72 61.4, 2.53 52.7, 1.06 45.31 C-0.41 37.93, -0.1 29.12, 2.95 22.21 C6 15.3, 12.64 7.39, 19.34 3.85 C26.05 0.32, 38.64 1.17, 43.18 1.01 C47.72 0.86, 46.53 2.27, 46.59 2.91 M51.27 5.19 C57.78 7.77, 65.06 13.97, 68.39 20.37 C71.73 26.76, 72.22 36.24, 71.27 43.57 C70.32 50.9, 67.38 58.93, 62.71 64.33 C58.04 69.72, 50.24 74.52, 43.24 75.93 C36.23 77.33, 27.09 75.96, 20.68 72.77 C14.27 69.57, 8.23 63.2, 4.77 56.73 C1.31 50.27, -0.84 41.56, -0.08 33.98 C0.68 26.39, 4.24 16.61, 9.33 11.21 C14.41 5.81, 23.51 2.58, 30.44 1.58 C37.37 0.57, 47.33 4.79, 50.89 5.2 C54.45 5.62, 51.67 3.82, 51.82 4.06" stroke="#000000" stroke-width="1" fill="none"></path></g><g transform="translate(29.820607369503534 151.55278662939605) rotate(0 16.8699951171875 17.5)"><text x="16.8699951171875" y="0" font-family="Virgil, Segoe UI Emoji" font-size="28px" fill="#000000" text-anchor="middle" style="white-space: pre;" direction="ltr" dominant-baseline="text-before-edge">V0</text></g><g stroke-linecap="round" transform="translate(176.34149169921875 14.32122802734375) rotate(0 36.5 38.5)"><path d="M49.36 3.16 C56.02 5.41, 63.09 11.92, 67.13 17.93 C71.17 23.94, 74.11 31.67, 73.62 39.22 C73.12 46.78, 68.85 57.16, 64.18 63.27 C59.51 69.38, 52.42 73.96, 45.62 75.91 C38.81 77.85, 29.95 77.55, 23.36 74.95 C16.76 72.34, 9.84 66.63, 6.05 60.28 C2.26 53.93, 0.46 44.45, 0.63 36.84 C0.81 29.24, 2.88 20.7, 7.09 14.67 C11.3 8.63, 18.29 2.51, 25.92 0.64 C33.55 -1.23, 47.69 2.36, 52.86 3.44 C58.03 4.52, 57.14 6.5, 56.93 7.14 M26.17 1.5 C32.99 -0.5, 44 1.22, 50.94 4.05 C57.88 6.88, 64.37 12.53, 67.82 18.47 C71.26 24.4, 72.01 32.26, 71.6 39.68 C71.2 47.11, 69.8 57.2, 65.38 63.02 C60.96 68.83, 52.23 72.91, 45.08 74.56 C37.93 76.22, 28.97 75.67, 22.49 72.92 C16.01 70.18, 10.19 64.45, 6.22 58.09 C2.25 51.73, -1.49 41.92, -1.33 34.75 C-1.17 27.59, 2.21 20.73, 7.18 15.09 C12.15 9.46, 25.3 2.99, 28.48 0.96 C31.67 -1.07, 26.39 2.13, 26.31 2.9" stroke="#000000" stroke-width="1" fill="none"></path></g><g transform="translate(202.00009650524566 35.09761695166168) rotate(0 11.031997680664062 17.5)"><text x="11.031997680664062" y="0" font-family="Virgil, Segoe UI Emoji" font-size="28px" fill="#000000" text-anchor="middle" style="white-space: pre;" direction="ltr" dominant-baseline="text-before-edge">V1</text></g><g stroke-linecap="round"><g transform="translate(81.82827120968989 143.81945644951986) rotate(0 46.689273632610735 -33.37289456997573)"><path d="M-0.45 0.49 C15.1 -10.64, 78.29 -56.28, 93.83 -67.23 M1.51 -0.3 C16.91 -11.26, 78.14 -55.06, 93.19 -66.18" stroke="#000000" stroke-width="1" fill="none"></path></g><g transform="translate(81.82827120968989 143.81945644951986) rotate(0 46.689273632610735 -33.37289456997573)"><path d="M77.2 -40.36 C80.73 -50.58, 89.82 -58.92, 92.97 -64.73 M75.77 -40.36 C80.65 -47.54, 86.76 -55.21, 93.27 -65.33" stroke="#000000" stroke-width="1" fill="none"></path></g><g transform="translate(81.82827120968989 143.81945644951986) rotate(0 46.689273632610735 -33.37289456997573)"><path d="M65.15 -56.98 C72.76 -61.43, 85.98 -64.06, 92.97 -64.73 M63.72 -56.97 C71.98 -59.44, 81.47 -62.45, 93.27 -65.33" stroke="#000000" stroke-width="1" fill="none"></path></g></g><mask></mask><g transform="translate(107.08660888671875 89.46371459960938) rotate(0 9.589996337890625 12.5)"><text x="0" y="0" font-family="Virgil, Segoe UI Emoji" font-size="20px" fill="#000000" text-anchor="start" style="white-space: pre;" direction="ltr" dominant-baseline="text-before-edge">10</text></g><g stroke-linecap="round" transform="translate(174.4288330078125 236.44244384765625) rotate(0 36.5 38.5)"><path d="M30.27 -0.24 C36.63 -2.1, 44.67 0.73, 51.15 4.08 C57.62 7.44, 65.48 13.52, 69.13 19.89 C72.78 26.26, 74.08 34.96, 73.04 42.3 C72 49.64, 67.79 58.37, 62.9 63.95 C58.01 69.52, 50.48 74.35, 43.68 75.76 C36.89 77.18, 28.58 75.49, 22.12 72.46 C15.67 69.42, 8.67 64.07, 4.97 57.54 C1.26 51.01, -0.99 40.92, -0.12 33.27 C0.75 25.62, 3.7 17.09, 10.19 11.64 C16.68 6.2, 32.7 2.15, 38.82 0.6 C44.93 -0.96, 47.11 1.73, 46.88 2.32 M35.84 1.34 C43.01 0.69, 52.31 1.7, 58.21 5.92 C64.11 10.14, 68.99 19.37, 71.22 26.63 C73.45 33.9, 73.77 42.45, 71.59 49.5 C69.42 56.55, 63.93 64.44, 58.19 68.92 C52.44 73.41, 43.91 76.03, 37.11 76.4 C30.32 76.76, 23.43 75.11, 17.42 71.1 C11.41 67.09, 3.75 59.31, 1.03 52.34 C-1.7 45.38, -1.24 36.95, 1.06 29.34 C3.37 21.73, 8.98 11.47, 14.86 6.69 C20.73 1.92, 32.94 1.66, 36.33 0.69 C39.72 -0.29, 35.18 0.15, 35.2 0.86" stroke="#000000" stroke-width="1" fill="none"></path></g><g transform="translate(194.92143744762848 257.2188327719742) rotate(0 16.197998046875 17.5)"><text x="16.197998046875" y="0" font-family="Virgil, Segoe UI Emoji" font-size="28px" fill="#000000" text-anchor="middle" style="white-space: pre;" direction="ltr" dominant-baseline="text-before-edge">V4</text></g><g stroke-linecap="round" transform="translate(371.36199951171875 240.385009765625) rotate(0 36.5 38.5)"><path d="M35.38 -0.66 C42.14 -1.61, 50.2 2.01, 56.18 6.35 C62.15 10.69, 68.68 18.57, 71.22 25.4 C73.76 32.23, 73.23 40.14, 71.41 47.34 C69.59 54.53, 65.8 63.64, 60.31 68.57 C54.82 73.5, 45.72 76.37, 38.46 76.9 C31.21 77.43, 22.92 75.94, 16.78 71.77 C10.64 67.61, 4.29 58.91, 1.63 51.89 C-1.03 44.88, -1.18 36.84, 0.82 29.68 C2.82 22.52, 7.69 13.77, 13.64 8.92 C19.59 4.07, 32.28 1.84, 36.52 0.59 C40.76 -0.67, 39.12 0.73, 39.09 1.39 M25.1 2.1 C31.37 -0.56, 41.67 -0.19, 48.47 2.18 C55.27 4.55, 61.8 10.4, 65.9 16.32 C69.99 22.24, 73.03 30.29, 73.06 37.69 C73.08 45.09, 70.07 54.65, 66.06 60.71 C62.05 66.78, 55.69 71.48, 49 74.07 C42.32 76.67, 32.82 78.38, 25.96 76.27 C19.1 74.16, 12.31 67.89, 7.83 61.41 C3.35 54.92, -0.88 44.84, -0.93 37.38 C-0.98 29.91, 3.3 22.68, 7.55 16.61 C11.79 10.54, 21.64 3.41, 24.53 0.96 C27.42 -1.5, 24.69 0.92, 24.9 1.88" stroke="#000000" stroke-width="1" fill="none"></path></g><g transform="translate(391.28060645397613 261.1613986899429) rotate(0 16.771995544433594 17.5)"><text x="16.771995544433594" y="0" font-family="Virgil, Segoe UI Emoji" font-size="28px" fill="#000000" text-anchor="middle" style="white-space: pre;" direction="ltr" dominant-baseline="text-before-edge">V3</text></g><g stroke-linecap="round" transform="translate(372.54766845703125 10) rotate(0 36.5 38.5)"><path d="M48.21 3.09 C54.66 5.13, 63.01 10.85, 67.13 17.01 C71.25 23.17, 73.12 32.63, 72.93 40.05 C72.75 47.46, 70.55 55.64, 66.03 61.5 C61.51 67.36, 52.67 72.96, 45.8 75.18 C38.93 77.41, 31.38 77.5, 24.8 74.86 C18.23 72.21, 10.38 65.73, 6.35 59.32 C2.32 52.91, 0.28 43.95, 0.61 36.4 C0.94 28.84, 3.88 19.91, 8.32 13.98 C12.77 8.05, 19.56 2.35, 27.27 0.81 C34.99 -0.73, 49.5 3.45, 54.61 4.73 C59.71 6.01, 58.23 7.91, 57.91 8.5 M33.87 0.09 C40.49 -0.58, 50.09 3.28, 56.04 7.53 C61.99 11.77, 66.76 18.59, 69.57 25.58 C72.37 32.57, 74.54 42.46, 72.89 49.46 C71.24 56.45, 65.63 62.89, 59.68 67.57 C53.73 72.25, 44.26 77.11, 37.2 77.52 C30.13 77.92, 23.24 74.32, 17.28 70.01 C11.33 65.69, 4.26 58.64, 1.47 51.62 C-1.33 44.59, -1.67 35.29, 0.54 27.87 C2.76 20.46, 8.95 11.92, 14.75 7.1 C20.55 2.27, 32.15 0.03, 35.34 -1.07 C38.52 -2.18, 34.09 -0.29, 33.86 0.47" stroke="#000000" stroke-width="1" fill="none"></path></g><g transform="translate(392.0322772913785 30.776388924317928) rotate(0 17.20599365234375 17.5)"><text x="17.20599365234375" y="0" font-family="Virgil, Segoe UI Emoji" font-size="28px" fill="#000000" text-anchor="middle" style="white-space: pre;" direction="ltr" dominant-baseline="text-before-edge">V2</text></g><g stroke-linecap="round"><g transform="translate(255.19671630859375 53.7548828125) rotate(0 53.163982083760175 -0.390039887223395)"><path d="M-0.13 0.1 C17.47 0.16, 87.89 0.44, 105.74 0.5 M-1.66 -0.9 C16.31 -1.19, 89.97 -1.16, 107.98 -1.28" stroke="#000000" stroke-width="1" fill="none"></path></g><g transform="translate(255.19671630859375 53.7548828125) rotate(0 53.163982083760175 -0.390039887223395)"><path d="M79.98 7.56 C89.65 6.46, 98.28 0.95, 109.64 -2.69 M79.21 9.68 C89.08 6.21, 99.76 1.15, 108.81 -1.99" stroke="#000000" stroke-width="1" fill="none"></path></g><g transform="translate(255.19671630859375 53.7548828125) rotate(0 53.163982083760175 -0.390039887223395)"><path d="M79.93 -12.96 C89.63 -7.69, 98.28 -6.83, 109.64 -2.69 M79.15 -10.84 C89.04 -7.01, 99.73 -4.76, 108.81 -1.99" stroke="#000000" stroke-width="1" fill="none"></path></g></g><mask></mask><g transform="translate(299.2729797363281 22.80364990234375) rotate(0 2.7099990844726562 12.5)"><text x="0" y="0" font-family="Virgil, Segoe UI Emoji" font-size="20px" fill="#000000" text-anchor="start" style="white-space: pre;" direction="ltr" dominant-baseline="text-before-edge">1</text></g><g stroke-linecap="round"><g transform="translate(399.22943115234364 99.41232299804688) rotate(0 -1.0402522723745733 66.48296996017916)"><path d="M-0.11 -1.14 C-0.55 21.18, -1.24 110.42, -1.48 133.15 M-1.63 0.87 C-2.23 23.37, -1.84 112.01, -1.87 134.11" stroke="#000000" stroke-width="1" fill="none"></path></g><g transform="translate(399.22943115234364 99.41232299804688) rotate(0 -1.0402522723745733 66.48296996017916)"><path d="M-14.07 107.71 C-10.14 118.67, -2.57 128.45, -1.54 134.59 M-12.9 106.62 C-10.44 112.61, -7.32 120.41, -2.11 133.96" stroke="#000000" stroke-width="1" fill="none"></path></g><g transform="translate(399.22943115234364 99.41232299804688) rotate(0 -1.0402522723745733 66.48296996017916)"><path d="M6.45 107.68 C2.3 118.63, 1.8 128.42, -1.54 134.59 M7.62 106.59 C4.99 112.78, 3.02 120.59, -2.11 133.96" stroke="#000000" stroke-width="1" fill="none"></path></g></g><mask></mask><g transform="translate(375.61822509765625 150.46047973632812) rotate(0 6.399993896484375 12.5)"><text x="0" y="0" font-family="Virgil, Segoe UI Emoji" font-size="20px" fill="#000000" text-anchor="start" style="white-space: pre;" direction="ltr" dominant-baseline="text-before-edge">4</text></g><g stroke-linecap="round"><g transform="translate(420.54986572265625 230.072021484375) rotate(0 0.7233191475667695 -68.27189500070176)"><path d="M0.99 0.07 C1.26 -22.48, 1.47 -112.1, 1.43 -134.88 M0.05 -0.94 C0.15 -23.87, -0.22 -114.13, 0.29 -136.61" stroke="#000000" stroke-width="1" fill="none"></path></g><g transform="translate(420.54986572265625 230.072021484375) rotate(0 0.7233191475667695 -68.27189500070176)"><path d="M10.46 -108.97 C8.6 -118.1, 2.82 -125.27, 0.02 -135.75 M9.86 -109.3 C7.61 -114.22, 4.82 -120.89, 0.61 -136.99" stroke="#000000" stroke-width="1" fill="none"></path></g><g transform="translate(420.54986572265625 230.072021484375) rotate(0 0.7233191475667695 -68.27189500070176)"><path d="M-10.07 -109.12 C-6.06 -118.38, -5.97 -125.5, 0.02 -135.75 M-10.66 -109.45 C-8.29 -114.45, -6.46 -121.09, 0.61 -136.99" stroke="#000000" stroke-width="1" fill="none"></path></g></g><mask></mask><g transform="translate(428.5594787597656 150.41162109375) rotate(0 6.399993896484375 12.5)"><text x="0" y="0" font-family="Virgil, Segoe UI Emoji" font-size="20px" fill="#000000" text-anchor="start" style="white-space: pre;" direction="ltr" dominant-baseline="text-before-edge">6</text></g><g stroke-linecap="round"><g transform="translate(253.95947265625 277.40576171875) rotate(0 56.39653462208804 -0.2442924208007753)"><path d="M-0.46 -0.03 C18.25 -0.3, 94.34 -0.65, 113.26 -0.43 M1.5 -1.09 C20.04 -0.73, 94.24 0.53, 112.75 0.61" stroke="#000000" stroke-width="1" fill="none"></path></g><g transform="translate(253.95947265625 277.40576171875) rotate(0 56.39653462208804 -0.2442924208007753)"><path d="M84.39 11.94 C93.58 7.87, 107.33 2.13, 112.83 -0.29 M84.11 10.2 C93.2 7.73, 102.82 5.07, 113.13 0.77" stroke="#000000" stroke-width="1" fill="none"></path></g><g transform="translate(253.95947265625 277.40576171875) rotate(0 56.39653462208804 -0.2442924208007753)"><path d="M84.63 -8.58 C93.93 -4.8, 107.58 -2.68, 112.83 -0.29 M84.35 -10.32 C93.31 -6.4, 102.85 -2.66, 113.13 0.77" stroke="#000000" stroke-width="1" fill="none"></path></g></g><mask></mask><g transform="translate(297.40914154052734 281.710693359375) rotate(0 7.1199951171875 12.5)"><text x="0" y="0" font-family="Virgil, Segoe UI Emoji" font-size="20px" fill="#000000" text-anchor="start" style="white-space: pre;" direction="ltr" dominant-baseline="text-before-edge">2</text></g><g stroke-linecap="round"><g transform="translate(77.9832763671875 201.04281616210938) rotate(0 46.41894596852359 27.523476104373117)"><path d="M-1.08 -0.39 C14.58 9.06, 77.98 47.46, 93.92 56.68 M0.55 -1.63 C16.1 7.47, 77.58 45.4, 93.22 54.96" stroke="#000000" stroke-width="1" fill="none"></path></g><g transform="translate(77.9832763671875 201.04281616210938) rotate(0 46.41894596852359 27.523476104373117)"><path d="M63.18 49.74 C73.8 52.89, 79.61 52.69, 91.94 54.67 M64.08 49.46 C73.52 50.29, 82.16 52.51, 94.16 55.84" stroke="#000000" stroke-width="1" fill="none"></path></g><g transform="translate(77.9832763671875 201.04281616210938) rotate(0 46.41894596852359 27.523476104373117)"><path d="M73.92 32.25 C81.36 40.48, 83.99 45.45, 91.94 54.67 M74.82 31.98 C80.91 38.42, 86.11 46.23, 94.16 55.84" stroke="#000000" stroke-width="1" fill="none"></path></g></g><mask></mask><g transform="translate(103.60122680664062 228.6536865234375) rotate(0 6.17999267578125 12.5)"><text x="0" y="0" font-family="Virgil, Segoe UI Emoji" font-size="20px" fill="#000000" text-anchor="start" style="white-space: pre;" direction="ltr" dominant-baseline="text-before-edge">5</text></g><g stroke-linecap="round"><g transform="translate(370.78717041015625 246.45440673828125) rotate(0 -137.60699881174605 -39.28890400566161)"><path d="M-0.02 0.43 C-45.95 -12.74, -228.81 -65.77, -274.54 -79.01 M-1.49 -0.39 C-47.62 -13.35, -229.65 -64.55, -275.19 -77.44" stroke="#000000" stroke-width="1" fill="none"></path></g><g transform="translate(370.78717041015625 246.45440673828125) rotate(0 -137.60699881174605 -39.28890400566161)"><path d="M-244.56 -78.73 C-256.73 -77.59, -268.33 -76.72, -274.86 -77.96 M-245.68 -79.05 C-255.31 -79.13, -266.09 -78.28, -275.34 -78.19" stroke="#000000" stroke-width="1" fill="none"></path></g><g transform="translate(370.78717041015625 246.45440673828125) rotate(0 -137.60699881174605 -39.28890400566161)"><path d="M-250.13 -58.98 C-260.15 -65.47, -269.59 -72.24, -274.86 -77.96 M-251.25 -59.3 C-259 -66.36, -267.81 -72.49, -275.34 -78.19" stroke="#000000" stroke-width="1" fill="none"></path></g></g><mask></mask><g transform="translate(282.4747009277344 225.19601440429688) rotate(0 5.379997253417969 12.5)"><text x="0" y="0" font-family="Virgil, Segoe UI Emoji" font-size="20px" fill="#000000" text-anchor="start" style="white-space: pre;" direction="ltr" dominant-baseline="text-before-edge">7</text></g><g stroke-linecap="round"><g transform="translate(236.28948974609375 237.3260498046875) rotate(0 70.2370585102774 -78.67438747981564)"><path d="M-0.86 -0.9 C22.51 -27.17, 115.85 -132.19, 139.17 -158.59 M0.89 1.24 C24.72 -24.76, 117.93 -130.57, 141.33 -157.2" stroke="#000000" stroke-width="1" fill="none"></path></g><g transform="translate(236.28948974609375 237.3260498046875) rotate(0 70.2370585102774 -78.67438747981564)"><path d="M128.9 -131 C132.49 -137.03, 133.57 -139.01, 141.58 -157.12 M129.79 -128.67 C134.13 -137.47, 137.48 -146.1, 140.53 -157.73" stroke="#000000" stroke-width="1" fill="none"></path></g><g transform="translate(236.28948974609375 237.3260498046875) rotate(0 70.2370585102774 -78.67438747981564)"><path d="M113.5 -144.56 C120.24 -147.62, 124.58 -146.73, 141.58 -157.12 M114.39 -142.24 C123.19 -147.03, 130.94 -151.79, 140.53 -157.73" stroke="#000000" stroke-width="1" fill="none"></path></g></g><mask></mask><g transform="translate(307.2323684692383 114.2264404296875) rotate(0 6.089996337890625 12.5)"><text x="0" y="0" font-family="Virgil, Segoe UI Emoji" font-size="20px" fill="#000000" text-anchor="start" style="white-space: pre;" direction="ltr" dominant-baseline="text-before-edge">9</text></g><g stroke-linecap="round"><g transform="translate(201.42291259765625 97.46847534179688) rotate(0 0.2380015795225745 66.33857997719198)"><path d="M0.9 0.2 C0.81 22.3, 0.15 109.95, 0.02 132.15 M-0.09 -0.74 C-0.3 21.56, -0.42 111.39, -0.42 133.41" stroke="#000000" stroke-width="1" fill="none"></path></g><g transform="translate(201.42291259765625 97.46847534179688) rotate(0 0.2380015795225745 66.33857997719198)"><path d="M-10.32 106.82 C-8.07 116.71, -2.48 125.57, 1.19 132.04 M-10.44 106 C-6.17 116.07, -2.26 125.72, -0.53 134.06" stroke="#000000" stroke-width="1" fill="none"></path></g><g transform="translate(201.42291259765625 97.46847534179688) rotate(0 0.2380015795225745 66.33857997719198)"><path d="M10.2 106.83 C5.33 116.87, 3.8 125.73, 1.19 132.04 M10.08 106.02 C6.65 115.9, 2.84 125.54, -0.53 134.06" stroke="#000000" stroke-width="1" fill="none"></path></g></g><mask></mask><g transform="translate(182.10116577148438 137.47982788085938) rotate(0 7.1199951171875 12.5)"><text x="0" y="0" font-family="Virgil, Segoe UI Emoji" font-size="20px" fill="#000000" text-anchor="start" style="white-space: pre;" direction="ltr" dominant-baseline="text-before-edge">2</text></g><g stroke-linecap="round"><g transform="translate(221.88751220703125 227.5164794921875) rotate(0 0.8304078290518646 -65.62474264539779)"><path d="M0.94 0.69 C1.34 -21.34, 1.57 -110.02, 1.69 -131.94 M-0.03 0 C0.34 -21.87, 0.89 -108.49, 1.08 -130.62" stroke="#000000" stroke-width="1" fill="none"></path></g><g transform="translate(221.88751220703125 227.5164794921875) rotate(0 0.8304078290518646 -65.62474264539779)"><path d="M12.27 -101.26 C7.95 -108.09, 7.4 -114.71, 0.46 -132.37 M11.6 -102.17 C8.36 -112.43, 4.32 -123.23, 0.09 -129.79" stroke="#000000" stroke-width="1" fill="none"></path></g><g transform="translate(221.88751220703125 227.5164794921875) rotate(0 0.8304078290518646 -65.62474264539779)"><path d="M-8.25 -101.41 C-7.64 -108.37, -3.25 -114.95, 0.46 -132.37 M-8.93 -102.32 C-4.46 -112.6, -0.8 -123.34, 0.09 -129.79" stroke="#000000" stroke-width="1" fill="none"></path></g></g><mask></mask><g transform="translate(229.061767578125 136.37899780273438) rotate(0 6.80999755859375 12.5)"><text x="0" y="0" font-family="Virgil, Segoe UI Emoji" font-size="20px" fill="#000000" text-anchor="start" style="white-space: pre;" direction="ltr" dominant-baseline="text-before-edge">3</text></g></svg>